PathFileType	4	(X/Y/Z)	D:\TRACE\spotREDO_2-26-24\spot_justBody_Motion_3_5-v60.trc
DataRate	CameraRate	NumFrames	NumMarkers	Units	OrigDataRate	OrigDataStartFrame	OrigNumFrames
100.00	100.00	      24	9	mm	100.00	1	      7000
Frame#	Time	front left toe			Front right toe			aft left toe			aft right toe			Arm			FL body			FR body			AL Body			AR Body			
		X1	Y1	Z1	X2	Y2	Z2	X3	Y3	Z3	X4	Y4	Z4	X5	Y5	Z5	X6	Y6	Z6	X7	Y7	Z7	X8	Y8	Z8	X9	Y9	Z9	

1	0.000	-273.00894	57.48472	-161.61086	227.72803	57.42284	-159.62259	-291.72253	-47.29384	430.77969	204.12425	-43.86362	434.62930	-21.75574	864.84906	-255.63123	-102.39520	603.69171	-269.63641	53.75451	609.99371	-269.00348	-108.86746	489.43201	607.00061	32.37526	494.96841	609.77582	
2	0.010	-272.99319	57.54477	-161.63670	227.77972	57.38292	-159.60684	-291.68951	-47.31237	430.83557	204.07744	-43.80417	434.67984	-21.77522	864.98492	-255.48457	-102.37518	603.81445	-269.59625	53.79244	610.27490	-268.91418	-109.21395	488.96201	606.88177	31.11176	494.74298	609.74438	
3	0.020	-272.97852	57.48888	-161.62834	227.63744	57.30881	-159.58746	-291.63022	-47.47915	430.87976	204.08536	-43.81936	434.74100	-21.79367	865.07056	-255.25752	-102.36599	603.90271	-269.60400	53.78199	610.41522	-268.85666	-109.53500	488.55917	606.93005	31.56597	494.34131	609.85992	
4	0.030	-272.98871	57.48090	-161.65591	227.87009	57.45396	-159.43784	-291.61316	-47.58314	430.94073	204.11580	-43.86280	434.85043	-21.72128	865.11646	-254.88661	-102.31438	604.05170	-269.54071	53.82468	610.55444	-268.74033	-109.90086	488.01318	606.92108	31.23229	493.73145	609.75677	
5	0.040	-273.02255	57.53684	-161.69679	227.73582	57.35268	-159.57216	-291.66422	-47.58757	430.95377	204.05136	-43.80957	434.90210	-21.66374	865.18408	-254.58891	-102.32662	604.17291	-269.54977	53.85376	610.68140	-268.67453	-110.17935	487.48404	606.80603	31.22211	493.00168	609.76300	
6	0.050	-273.03912	57.52502	-161.65956	227.82515	57.33659	-159.51996	-291.68658	-47.60347	431.03604	204.01556	-43.73850	435.01221	-21.49607	865.29584	-254.25900	-102.26666	604.35254	-269.47345	53.96146	610.78851	-268.57516	-110.34042	486.83154	606.76575	31.10883	492.27301	609.89258	
7	0.060	-273.05124	57.56676	-161.69011	227.77510	57.28585	-159.49681	-291.63541	-47.61605	431.17615	203.97462	-43.72643	435.05820	-21.45028	865.50922	-253.84787	-102.29782	604.60480	-269.41022	54.02263	610.92999	-268.47122	-110.41766	486.07092	606.77661	30.75759	491.80838	609.79132	
8	0.070	-273.07642	57.48370	-161.64589	227.72258	57.27814	-159.53073	-291.63504	-47.62107	431.20724	204.01891	-43.75253	435.08725	-21.60719	865.63879	-253.65657	-102.26115	604.73938	-269.39944	54.01610	611.04498	-268.38126	-110.61585	485.13629	606.71582	30.58994	490.84235	609.80756	
9	0.080	-272.99557	57.43389	-161.68419	227.62469	57.22958	-159.44888	-291.61938	-47.72002	431.25116	203.96761	-43.79362	435.06177	-21.80339	865.75452	-253.19690	-102.16901	604.76617	-269.26752	54.00281	611.22467	-268.29141	-110.88753	484.28772	606.48273	30.65754	489.78033	609.78784	
10	0.090	-272.95135	57.34366	-161.63666	227.63943	57.32352	-159.42735	-291.57776	-47.75346	431.30630	203.96933	-43.85894	435.12564	-21.87152	865.99945	-252.70882	-102.19069	604.91754	-269.21750	53.97305	611.41663	-268.16107	-110.86801	483.13687	606.38538	30.16451	488.92694	609.60376	
11	0.100	-273.00003	57.39481	-161.67410	227.64343	57.33965	-159.45992	-291.55753	-47.73867	431.34659	204.04495	-43.75350	435.21368	-21.72593	866.14874	-252.27167	-102.24573	605.10199	-269.15582	53.80120	611.61194	-268.05460	-110.87919	482.21375	606.17822	30.14525	487.73846	609.70789	
12	0.110	-273.03564	57.42809	-161.62167	227.59846	57.31887	-159.45074	-291.58032	-47.74808	431.41125	204.02177	-43.80871	435.31735	-21.80944	866.35614	-251.82593	-102.31983	605.32684	-269.11514	53.70433	611.88428	-267.92114	-110.85816	481.04599	606.22797	30.07351	486.65894	609.41174	
13	0.120	-273.07147	57.45931	-161.60179	227.62296	57.33818	-159.41119	-291.59790	-47.81797	431.40558	204.02167	-43.82629	435.44302	-21.75285	866.41241	-251.24422	-102.32201	605.56604	-269.11115	53.60991	612.02661	-267.94702	-111.03609	479.99777	606.01581	30.07111	485.65729	609.45673	
14	0.130	-273.08572	57.39428	-161.59592	227.54182	57.24918	-159.48178	-291.59680	-47.83878	431.44965	204.00699	-43.87238	435.47604	-21.86452	866.59979	-250.68285	-102.40170	605.81342	-269.06622	53.55901	612.21893	-267.95941	-110.97327	479.02213	606.00659	29.97852	484.24915	609.10315	
15	0.140	-273.04297	57.37587	-161.59773	227.59610	57.38658	-159.37984	-291.60455	-47.86750	431.47537	203.91905	-43.90191	435.48685	-21.97050	866.77820	-250.42557	-102.28485	606.01654	-269.04974	53.51382	612.40479	-267.97653	-111.19137	477.86343	605.89203	29.80275	483.55145	608.93311	
16	0.150	-273.02930	57.34378	-161.64488	227.60526	57.34698	-159.39787	-291.62164	-47.86391	431.47348	203.85661	-43.91985	435.49283	-22.05423	867.06183	-250.01515	-102.31316	606.26666	-269.03568	53.55135	612.62915	-267.96161	-111.37856	476.85104	605.72565	29.53374	482.03964	608.86194	
17	0.160	-273.06927	57.40573	-161.64871	227.64674	57.39626	-159.33940	-291.59668	-47.83064	431.48401	203.89955	-43.88230	435.53778	-21.81702	867.21576	-249.58334	-102.19293	606.47272	-268.91174	53.67903	612.87183	-267.83023	-111.39224	476.00424	605.59094	29.59922	481.42007	608.79846	
18	0.170	-273.04892	57.42489	-161.64162	227.56731	57.28217	-159.38521	-291.58762	-47.81385	431.47104	203.91046	-43.86267	435.60837	-21.64775	867.23108	-248.99702	-102.10912	606.67267	-268.84634	53.79692	613.06812	-267.73322	-111.49806	474.90619	605.21912	29.23919	480.14554	608.65875	
19	0.180	-273.04913	57.41676	-161.65208	227.64186	57.30058	-159.32245	-291.60229	-47.84097	431.49677	203.89246	-43.93184	435.66452	-21.55507	867.37378	-248.63115	-102.13133	606.82495	-268.89966	53.82070	613.17706	-267.74213	-111.52431	473.90833	605.15668	29.31032	479.30731	608.57611	
20	0.190	-273.02341	57.31355	-161.67006	227.58919	57.26383	-159.26288	-291.60428	-47.87951	431.54086	203.83394	-43.98071	435.66037	-21.57184	867.56598	-248.46103	-101.97511	606.91956	-268.85324	53.96139	613.28418	-267.62183	-111.70871	473.18607	604.96948	28.99825	478.52292	608.52478	
21	0.200	-273.00681	57.33995	-161.68623	227.50381	57.13690	-159.28069	-291.62088	-47.93025	431.54684	203.82475	-43.98820	435.70132	-21.52210	867.65808	-248.28506	-101.93280	607.03027	-268.89697	54.06801	613.41479	-267.52194	-111.72468	472.23151	604.89215	28.84306	477.66183	608.40228	
22	0.210	-273.01120	57.38400	-161.68076	227.63275	57.15987	-159.27415	-291.64496	-47.87078	431.53168	203.76115	-44.00677	435.69858	-21.46748	867.79663	-248.17691	-101.91164	607.12109	-268.90997	54.15944	613.63757	-267.42087	-111.82176	471.79819	604.84521	28.91950	477.10132	608.33392	
23	0.220	-273.07568	57.47124	-161.66972	227.66394	57.16875	-159.26781	-291.63290	-47.88753	431.54044	203.69676	-44.01149	435.70370	-21.29690	867.99939	-247.92896	-101.95800	607.26947	-268.88495	54.25341	613.76526	-267.37082	-111.92661	471.18707	604.63776	28.64337	476.48907	608.28815	
24	0.230	-273.06061	57.55193	-161.73651	227.64339	57.18177	-159.17938	-291.65359	-47.85285	431.56540	203.74144	-43.93905	435.80035	-21.16888	868.14520	-247.61484	-101.88022	607.37958	-268.90051	54.35251	613.83740	-267.32834	-112.02388	470.65359	604.47583	28.45323	475.86084	608.18677	
